<svg xmlns="http://www.w3.org/2000/svg" viewBox="0 0 128 128" fill="none">
  <circle cx="64" cy="64" r="64" fill="url(#sol-gradient)"/>
  <path d="M33.4 82.5c.6-.6 1.4-.9 2.3-.9h61.7c1.4 0 2.2 1.7 1.2 2.7l-12.4 12.4c-.6.6-1.4.9-2.3.9H22.2c-1.4 0-2.2-1.7-1.2-2.7L33.4 82.5z" fill="#fff"/>
  <path d="M33.4 31.3c.6-.6 1.5-.9 2.3-.9h61.7c1.4 0 2.2 1.7 1.2 2.7L86.2 45.5c-.6.6-1.4.9-2.3.9H22.2c-1.4 0-2.2-1.7-1.2-2.7L33.4 31.3z" fill="#fff"/>
  <path d="M86.2 56.7c-.6-.6-1.4-.9-2.3-.9H22.2c-1.4 0-2.2 1.7-1.2 2.7l12.4 12.4c.6.6 1.4.9 2.3.9h61.7c1.4 0 2.2-1.7 1.2-2.7L86.2 56.7z" fill="#fff"/>
  <defs>
    <linearGradient id="sol-gradient" x1="0" y1="0" x2="128" y2="128">
      <stop stop-color="#9945FF"/>
      <stop offset="0.5" stop-color="#14F195"/>
      <stop offset="1" stop-color="#00C2FF"/>
    </linearGradient>
  </defs>
</svg>
